EBGaramondVF-ytransparentMin.ufo
<glyph name="numbersign" format="1">
  <advance width="468"/>
  <unicode hex="0023"/>
  <outline>
    <contour>
      <point x="73" y="-79"/>
      <point x="85" y="-77"/>
      <point x="90" y="-64" type="curve" smooth="yes"/>
      <point x="129" y="45" type="line"/>
      <point x="241" y="51" type="line"/>
      <point x="205" y="-53" type="line"/>
      <point x="205" y="-56" type="line" smooth="yes"/>
      <point x="205" y="-62"/>
      <point x="209" y="-68"/>
      <point x="215" y="-68" type="curve" smooth="yes"/>
      <point x="228" y="-68"/>
      <point x="240" y="-66"/>
      <point x="245" y="-53" type="curve" smooth="yes"/>
      <point x="283" y="53" type="line"/>
      <point x="346" y="56" type="line" smooth="yes"/>
      <point x="368" y="57"/>
      <point x="377" y="94"/>
      <point x="377" y="104" type="curve" smooth="yes"/>
      <point x="377" y="111"/>
      <point x="371" y="116"/>
      <point x="364" y="116" type="curve"/>
      <point x="304" y="113" type="line"/>
      <point x="335" y="201" type="line"/>
      <point x="393" y="204" type="line" smooth="yes"/>
      <point x="415" y="205"/>
      <point x="424" y="243"/>
      <point x="424" y="253" type="curve" smooth="yes"/>
      <point x="424" y="260"/>
      <point x="418" y="264"/>
      <point x="411" y="264" type="curve"/>
      <point x="356" y="261" type="line"/>
      <point x="394" y="373" type="line"/>
      <point x="394" y="375"/>
      <point x="395" y="376"/>
      <point x="395" y="378" type="curve" smooth="yes"/>
      <point x="395" y="384"/>
      <point x="392" y="390"/>
      <point x="387" y="390" type="curve" smooth="yes"/>
      <point x="373" y="390"/>
      <point x="359" y="387"/>
      <point x="354" y="373" type="curve" smooth="yes"/>
      <point x="315" y="259" type="line"/>
      <point x="203" y="253" type="line"/>
      <point x="240" y="362" type="line"/>
      <point x="240" y="364"/>
      <point x="241" y="365"/>
      <point x="241" y="367" type="curve" smooth="yes"/>
      <point x="241" y="373"/>
      <point x="238" y="379"/>
      <point x="233" y="379" type="curve" smooth="yes"/>
      <point x="219" y="379"/>
      <point x="204" y="376"/>
      <point x="199" y="362" type="curve" smooth="yes"/>
      <point x="159" y="251" type="line"/>
      <point x="88" y="248" type="line" smooth="yes"/>
      <point x="67" y="247"/>
      <point x="64" y="210"/>
      <point x="64" y="200" type="curve" smooth="yes"/>
      <point x="64" y="193"/>
      <point x="71" y="188"/>
      <point x="78" y="188" type="curve"/>
      <point x="138" y="191" type="line"/>
      <point x="108" y="103" type="line"/>
      <point x="41" y="100" type="line" smooth="yes"/>
      <point x="20" y="99"/>
      <point x="17" y="62"/>
      <point x="17" y="52" type="curve" smooth="yes"/>
      <point x="17" y="45"/>
      <point x="24" y="40"/>
      <point x="31" y="40" type="curve"/>
      <point x="86" y="43" type="line"/>
      <point x="50" y="-64" type="line"/>
      <point x="50" y="-67" type="line" smooth="yes"/>
      <point x="50" y="-73"/>
      <point x="54" y="-79"/>
      <point x="60" y="-79" type="curve" smooth="yes"/>
    </contour>
    <contour>
      <point x="181" y="193" type="line"/>
      <point x="294" y="199" type="line"/>
      <point x="263" y="111" type="line"/>
      <point x="149" y="105" type="line"/>
    </contour>
  </outline>
</glyph>
<glyph name="dollar" format="1">
  <advance width="441"/>
  <unicode hex="0024"/>
  <outline>
    <contour>
      <point x="171" y="-82" type="curve" smooth="yes"/>
      <point x="182" y="-82"/>
      <point x="195" y="-79"/>
      <point x="196" y="-72" type="curve" smooth="yes"/>
      <point x="205" y="-21" type="line" smooth="yes"/>
      <point x="206" y="-17"/>
      <point x="209" y="-16"/>
      <point x="214" y="-16" type="curve" smooth="yes"/>
      <point x="326" y="-11"/>
      <point x="398" y="36"/>
      <point x="398" y="104" type="curve" smooth="yes"/>
      <point x="398" y="158"/>
      <point x="358" y="187"/>
      <point x="267" y="224" type="curve" smooth="yes"/>
      <point x="257" y="228"/>
      <point x="258" y="230"/>
      <point x="259" y="235" type="curve" smooth="yes"/>
      <point x="275" y="350" type="line"/>
      <point x="275" y="352"/>
      <point x="277" y="354"/>
      <point x="279" y="354" type="curve" smooth="yes"/>
      <point x="311" y="354"/>
      <point x="331" y="331"/>
      <point x="349" y="301" type="curve" smooth="yes"/>
      <point x="352" y="296"/>
      <point x="358" y="286"/>
      <point x="374" y="286" type="curve" smooth="yes"/>
      <point x="385" y="286"/>
      <point x="390" y="294"/>
      <point x="390" y="300" type="curve" smooth="yes"/>
      <point x="390" y="319"/>
      <point x="380" y="351"/>
      <point x="373" y="369" type="curve" smooth="yes"/>
      <point x="370" y="375"/>
      <point x="363" y="381"/>
      <point x="353" y="383" type="curve" smooth="yes"/>
      <point x="338" y="387"/>
      <point x="317" y="394"/>
      <point x="290" y="397" type="curve" smooth="yes"/>
      <point x="285" y="398"/>
      <point x="284" y="400"/>
      <point x="284" y="402" type="curve" smooth="yes"/>
      <point x="285" y="408"/>
      <point x="288" y="435"/>
      <point x="289" y="442" type="curve"/>
      <point x="289" y="447"/>
      <point x="283" y="452"/>
      <point x="276" y="452" type="curve" smooth="yes"/>
      <point x="263" y="452"/>
      <point x="248" y="449"/>
      <point x="247" y="441" type="curve" smooth="yes"/>
      <point x="242" y="402" type="line" smooth="yes"/>
      <point x="242" y="400"/>
      <point x="238" y="398"/>
      <point x="232" y="398" type="curve" smooth="yes"/>
      <point x="115" y="394"/>
      <point x="56" y="344"/>
      <point x="56" y="287" type="curve" smooth="yes"/>
      <point x="56" y="235"/>
      <point x="120" y="202"/>
      <point x="186" y="180" type="curve" smooth="yes"/>
      <point x="198" y="176"/>
      <point x="198" y="172"/>
      <point x="198" y="169" type="curve" smooth="yes"/>
      <point x="176" y="32" type="line" smooth="yes"/>
      <point x="176" y="29"/>
      <point x="171" y="29"/>
      <point x="167" y="31" type="curve"/>
      <point x="130" y="41"/>
      <point x="83" y="61"/>
      <point x="73" y="109" type="curve" smooth="yes"/>
      <point x="72" y="114"/>
      <point x="67" y="124"/>
      <point x="55" y="124" type="curve" smooth="yes"/>
      <point x="45" y="124"/>
      <point x="40" y="113"/>
      <point x="40" y="107" type="curve"/>
      <point x="42" y="90"/>
      <point x="42" y="43"/>
      <point x="49" y="26" type="curve" smooth="yes"/>
      <point x="51" y="22"/>
      <point x="57" y="18"/>
      <point x="61" y="14" type="curve" smooth="yes"/>
      <point x="88" y="0"/>
      <point x="121" y="-11"/>
      <point x="158" y="-15" type="curve" smooth="yes"/>
      <point x="161" y="-15"/>
      <point x="166" y="-17"/>
      <point x="165" y="-21" type="curve"/>
      <point x="156" y="-69" type="line" smooth="yes"/>
      <point x="154" y="-77"/>
      <point x="163" y="-82"/>
    </contour>
    <contour>
      <point x="227" y="24" type="curve"/>
      <point x="221" y="24"/>
      <point x="219" y="25"/>
      <point x="219" y="30" type="curve"/>
      <point x="240" y="154" type="line" smooth="yes"/>
      <point x="241" y="157"/>
      <point x="243" y="159"/>
      <point x="247" y="157" type="curve" smooth="yes"/>
      <point x="294" y="140"/>
      <point x="319" y="124"/>
      <point x="319" y="87" type="curve" smooth="yes"/>
      <point x="319" y="49"/>
      <point x="286" y="26"/>
    </contour>
    <contour>
      <point x="209" y="244" type="curve"/>
      <point x="168" y="261"/>
      <point x="134" y="279"/>
      <point x="134" y="301" type="curve" smooth="yes"/>
      <point x="134" y="345"/>
      <point x="176" y="358"/>
      <point x="227" y="360" type="curve"/>
      <point x="232" y="360"/>
      <point x="234" y="358"/>
      <point x="234" y="355" type="curve"/>
      <point x="217" y="245" type="line"/>
      <point x="217" y="243"/>
      <point x="216" y="241"/>
    </contour>
  </outline>
</glyph>
<glyph name="ampersand" format="1">
  <advance width="756"/>
  <unicode hex="0026"/>
  <outline>
    <contour>
      <point x="305" y="-15"/>
      <point x="345" y="26"/>
      <point x="408" y="69" type="curve"/>
      <point x="414" y="72" type="line"/>
      <point x="427" y="59" type="line" smooth="yes"/>
      <point x="478" y="8"/>
      <point x="511" y="-15"/>
      <point x="586" y="-15" type="curve" smooth="yes"/>
      <point x="641" y="-15"/>
      <point x="715" y="35"/>
      <point x="715" y="52" type="curve" smooth="yes"/>
      <point x="715" y="60"/>
      <point x="712" y="63"/>
      <point x="703" y="63" type="curve" smooth="yes"/>
      <point x="697" y="63"/>
      <point x="691" y="62"/>
      <point x="686" y="59" type="curve" smooth="yes"/>
      <point x="662" y="44"/>
      <point x="636" y="41"/>
      <point x="608" y="41" type="curve" smooth="yes"/>
      <point x="557" y="41"/>
      <point x="524" y="54"/>
      <point x="481" y="91" type="curve" smooth="yes"/>
      <point x="466" y="104" type="line"/>
      <point x="466" y="104"/>
      <point x="625" y="203"/>
      <point x="638" y="211" type="curve" smooth="yes"/>
      <point x="654" y="221"/>
      <point x="680" y="232"/>
      <point x="711" y="233" type="curve" smooth="yes"/>
      <point x="720" y="234"/>
      <point x="736" y="241"/>
      <point x="736" y="247" type="curve" smooth="yes"/>
      <point x="736" y="251"/>
      <point x="727" y="254"/>
      <point x="724" y="254" type="curve" smooth="yes"/>
      <point x="700" y="254"/>
      <point x="658" y="245"/>
      <point x="628" y="245" type="curve" smooth="yes"/>
      <point x="613" y="245"/>
      <point x="553" y="248"/>
      <point x="543" y="248" type="curve" smooth="yes"/>
      <point x="540" y="248"/>
      <point x="525" y="247"/>
      <point x="525" y="239" type="curve" smooth="yes"/>
      <point x="525" y="237"/>
      <point x="532" y="229"/>
      <point x="540" y="228" type="curve" smooth="yes"/>
      <point x="549" y="227"/>
      <point x="552" y="219"/>
      <point x="552" y="212" type="curve" smooth="yes"/>
      <point x="552" y="193"/>
      <point x="504" y="158"/>
      <point x="458" y="131" type="curve" smooth="yes"/>
      <point x="439" y="120" type="line"/>
      <point x="426" y="129" type="line" smooth="yes"/>
      <point x="381" y="160"/>
      <point x="352" y="184"/>
      <point x="306" y="219" type="curve" smooth="yes"/>
      <point x="298" y="225" type="line"/>
      <point x="307" y="228" type="line" smooth="yes"/>
      <point x="368" y="248"/>
      <point x="412" y="263"/>
      <point x="411" y="295" type="curve" smooth="yes"/>
      <point x="411" y="328"/>
      <point x="370" y="372"/>
      <point x="284" y="372" type="curve" smooth="yes"/>
      <point x="215" y="372"/>
      <point x="145" y="344"/>
      <point x="145" y="299" type="curve" smooth="yes"/>
      <point x="145" y="267"/>
      <point x="170" y="248"/>
      <point x="205" y="222" type="curve" smooth="yes"/>
      <point x="217" y="215" type="line"/>
      <point x="199" y="207" type="line" smooth="yes"/>
      <point x="109" y="167"/>
      <point x="38" y="141"/>
      <point x="38" y="74" type="curve" smooth="yes"/>
      <point x="38" y="23"/>
      <point x="109" y="-15"/>
      <point x="212" y="-15" type="curve" smooth="yes"/>
    </contour>
    <contour>
      <point x="162" y="49"/>
      <point x="115" y="75"/>
      <point x="115" y="108" type="curve" smooth="yes"/>
      <point x="115" y="139"/>
      <point x="134" y="160"/>
      <point x="217" y="193" type="curve" smooth="yes"/>
      <point x="237" y="201" type="line"/>
      <point x="245" y="196" type="line" smooth="yes"/>
      <point x="298" y="163"/>
      <point x="344" y="124"/>
      <point x="377" y="99" type="curve" smooth="yes"/>
      <point x="389" y="90" type="line"/>
      <point x="381" y="84" type="line" smooth="yes"/>
      <point x="337" y="51"/>
      <point x="294" y="49"/>
      <point x="232" y="49" type="curve" smooth="yes"/>
    </contour>
    <contour>
      <point x="270" y="243" type="line" smooth="yes"/>
      <point x="219" y="277"/>
      <point x="203" y="286"/>
      <point x="203" y="309" type="curve" smooth="yes"/>
      <point x="203" y="327"/>
      <point x="230" y="346"/>
      <point x="279" y="346" type="curve" smooth="yes"/>
      <point x="325" y="346"/>
      <point x="347" y="319"/>
      <point x="347" y="293" type="curve" smooth="yes"/>
      <point x="347" y="270"/>
      <point x="325" y="255"/>
      <point x="288" y="243" type="curve" smooth="yes"/>
      <point x="276" y="239" type="line"/>
    </contour>
  </outline>
</glyph>
<glyph name="quotesingle" format="1">
  <advance width="200"/>
  <unicode hex="0027"/>
  <outline>
    <contour>
      <point x="77" y="211"/>
      <point x="86" y="224"/>
      <point x="91" y="236" type="curve" smooth="yes"/>
      <point x="106" y="272"/>
      <point x="138" y="359"/>
      <point x="138" y="411" type="curve" smooth="yes"/>
      <point x="138" y="428"/>
      <point x="134" y="443"/>
      <point x="124" y="443" type="curve" smooth="yes"/>
      <point x="108" y="443"/>
      <point x="97" y="435"/>
      <point x="81" y="422" type="curve"/>
      <point x="73" y="415"/>
      <point x="62" y="401"/>
      <point x="62" y="387" type="curve" smooth="yes"/>
      <point x="62" y="386"/>
      <point x="66" y="327"/>
      <point x="66" y="291" type="curve" smooth="yes"/>
      <point x="66" y="273"/>
      <point x="66" y="255"/>
      <point x="65" y="234" type="curve"/>
      <point x="65" y="225"/>
      <point x="67" y="211"/>
      <point x="72" y="211" type="curve" smooth="yes"/>
    </contour>
  </outline>
</glyph>
<glyph name="asterisk" format="1">
  <advance width="340"/>
  <unicode hex="002A"/>
  <outline>
    <contour>
      <point x="184" y="145" type="curve" smooth="yes"/>
      <point x="196" y="145"/>
      <point x="201" y="156"/>
      <point x="201" y="167" type="curve"/>
      <point x="200" y="202"/>
      <point x="198" y="232"/>
      <point x="195" y="260" type="curve"/>
      <point x="221" y="249"/>
      <point x="249" y="237"/>
      <point x="282" y="225" type="curve" smooth="yes"/>
      <point x="290" y="222"/>
      <point x="307" y="224"/>
      <point x="307" y="238" type="curve" smooth="yes"/>
      <point x="307" y="245"/>
      <point x="302" y="253"/>
      <point x="295" y="256" type="curve"/>
      <point x="264" y="274"/>
      <point x="239" y="286"/>
      <point x="213" y="298" type="curve"/>
      <point x="286" y="356" type="line"/>
      <point x="291" y="361"/>
      <point x="295" y="367"/>
      <point x="295" y="373" type="curve" smooth="yes"/>
      <point x="295" y="383"/>
      <point x="285" y="387"/>
      <point x="277" y="387" type="curve" smooth="yes"/>
      <point x="273" y="387"/>
      <point x="269" y="386"/>
      <point x="266" y="383" type="curve"/>
      <point x="236" y="365"/>
      <point x="210" y="349"/>
      <point x="187" y="333" type="curve"/>
      <point x="174" y="425" type="line" smooth="yes"/>
      <point x="173" y="434"/>
      <point x="166" y="443"/>
      <point x="157" y="443" type="curve" smooth="yes"/>
      <point x="145" y="443"/>
      <point x="140" y="432"/>
      <point x="140" y="421" type="curve" smooth="yes"/>
      <point x="140" y="386"/>
      <point x="143" y="356"/>
      <point x="146" y="328" type="curve"/>
      <point x="120" y="339"/>
      <point x="91" y="349"/>
      <point x="59" y="363" type="curve"/>
      <point x="51" y="366"/>
      <point x="34" y="364"/>
      <point x="34" y="350" type="curve" smooth="yes"/>
      <point x="34" y="343"/>
      <point x="39" y="335"/>
      <point x="46" y="332" type="curve"/>
      <point x="77" y="314"/>
      <point x="102" y="302"/>
      <point x="128" y="290" type="curve"/>
      <point x="55" y="232" type="line"/>
      <point x="50" y="227"/>
      <point x="46" y="221"/>
      <point x="46" y="215" type="curve" smooth="yes"/>
      <point x="46" y="205"/>
      <point x="56" y="201"/>
      <point x="64" y="201" type="curve" smooth="yes"/>
      <point x="68" y="201"/>
      <point x="72" y="202"/>
      <point x="75" y="205" type="curve"/>
      <point x="105" y="223"/>
      <point x="131" y="239"/>
      <point x="154" y="255" type="curve"/>
      <point x="167" y="163" type="line" smooth="yes"/>
      <point x="168" y="154"/>
      <point x="175" y="145"/>
    </contour>
  </outline>
</glyph>
<glyph name="zero" format="1">
  <advance width="480"/>
  <unicode hex="0030"/>
  <outline>
    <contour>
      <point x="235" y="-14" type="curve" smooth="yes"/>
      <point x="383" y="-14"/>
      <point x="445" y="101"/>
      <point x="445" y="197" type="curve" smooth="yes"/>
      <point x="445" y="290"/>
      <point x="381" y="398"/>
      <point x="245" y="398" type="curve" smooth="yes"/>
      <point x="97" y="398"/>
      <point x="35" y="286"/>
      <point x="35" y="188" type="curve" smooth="yes"/>
      <point x="35" y="94"/>
      <point x="99" y="-14"/>
    </contour>
    <contour>
      <point x="252" y="12" type="curve" smooth="yes"/>
      <point x="162" y="12"/>
      <point x="118" y="108"/>
      <point x="118" y="200" type="curve" smooth="yes"/>
      <point x="118" y="291"/>
      <point x="146" y="371"/>
      <point x="226" y="371" type="curve" smooth="yes"/>
      <point x="316" y="371"/>
      <point x="363" y="278"/>
      <point x="363" y="186" type="curve" smooth="yes"/>
      <point x="363" y="95"/>
      <point x="332" y="12"/>
    </contour>
  </outline>
</glyph>
<glyph name="one" format="1">
  <advance width="480"/>
  <unicode hex="0031"/>
  <outline>
    <contour>
      <point x="161" y="-3"/>
      <point x="203" y="2"/>
      <point x="257" y="2" type="curve" smooth="yes"/>
      <point x="310" y="2"/>
      <point x="347" y="-3"/>
      <point x="404" y="-3" type="curve" smooth="yes"/>
      <point x="412" y="-3"/>
      <point x="418" y="2"/>
      <point x="418" y="8" type="curve" smooth="yes"/>
      <point x="418" y="14"/>
      <point x="409" y="19"/>
      <point x="401" y="21" type="curve" smooth="yes"/>
      <point x="319" y="41"/>
      <point x="295" y="46"/>
      <point x="295" y="97" type="curve" smooth="yes"/>
      <point x="295" y="326" type="line" smooth="yes"/>
      <point x="295" y="354"/>
      <point x="296" y="377"/>
      <point x="299" y="397" type="curve"/>
      <point x="300" y="402"/>
      <point x="293" y="406"/>
      <point x="287" y="406" type="curve" smooth="yes"/>
      <point x="285" y="406"/>
      <point x="283" y="406"/>
      <point x="282" y="405" type="curve" smooth="yes"/>
      <point x="237" y="360"/>
      <point x="192" y="352"/>
      <point x="132" y="343" type="curve" smooth="yes"/>
      <point x="118" y="341"/>
      <point x="107" y="334"/>
      <point x="107" y="325" type="curve" smooth="yes"/>
      <point x="107" y="314"/>
      <point x="120" y="309"/>
      <point x="133" y="308" type="curve" smooth="yes"/>
      <point x="176" y="305"/>
      <point x="217" y="298"/>
      <point x="217" y="260" type="curve" smooth="yes"/>
      <point x="217" y="109" type="line" smooth="yes"/>
      <point x="217" y="50"/>
      <point x="183" y="41"/>
      <point x="107" y="22" type="curve" smooth="yes"/>
      <point x="99" y="20"/>
      <point x="92" y="14"/>
      <point x="92" y="9" type="curve" smooth="yes"/>
      <point x="92" y="3"/>
      <point x="97" y="-3"/>
      <point x="107" y="-3" type="curve" smooth="yes"/>
    </contour>
  </outline>
</glyph>
<glyph name="four" format="1">
  <advance width="480"/>
  <unicode hex="0034"/>
  <outline>
    <contour>
      <point x="210" y="-3" type="curve" smooth="yes"/>
      <point x="264" y="-3"/>
      <point x="274" y="2"/>
      <point x="325" y="2" type="curve" smooth="yes"/>
      <point x="372" y="2"/>
      <point x="381" y="-3"/>
      <point x="438" y="-3" type="curve" smooth="yes"/>
      <point x="446" y="-3"/>
      <point x="453" y="2"/>
      <point x="453" y="8" type="curve" smooth="yes"/>
      <point x="453" y="14"/>
      <point x="443" y="20"/>
      <point x="435" y="22" type="curve" smooth="yes"/>
      <point x="381" y="36"/>
      <point x="368" y="45"/>
      <point x="368" y="84" type="curve" smooth="yes"/>
      <point x="368" y="100" type="line" smooth="yes"/>
      <point x="368" y="101"/>
      <point x="376" y="105"/>
      <point x="381" y="106" type="curve"/>
      <point x="389" y="107"/>
      <point x="400" y="108"/>
      <point x="412" y="108" type="curve" smooth="yes"/>
      <point x="428" y="108"/>
      <point x="446" y="107"/>
      <point x="461" y="107" type="curve" smooth="yes"/>
      <point x="465" y="107"/>
      <point x="482" y="129"/>
      <point x="482" y="145" type="curve" smooth="yes"/>
      <point x="482" y="149"/>
      <point x="477" y="153"/>
      <point x="471" y="153" type="curve"/>
      <point x="449" y="152"/>
      <point x="431" y="151"/>
      <point x="412" y="151" type="curve" smooth="yes"/>
      <point x="400" y="151"/>
      <point x="387" y="151"/>
      <point x="372" y="152" type="curve"/>
      <point x="369" y="152"/>
      <point x="367" y="155"/>
      <point x="367" y="158" type="curve" smooth="yes"/>
      <point x="367" y="207" type="line" smooth="yes"/>
      <point x="367" y="249"/>
      <point x="367" y="271"/>
      <point x="352" y="271" type="curve" smooth="yes"/>
      <point x="343" y="271"/>
      <point x="316" y="269"/>
      <point x="296" y="258" type="curve"/>
      <point x="288" y="254"/>
      <point x="287" y="250"/>
      <point x="287" y="236" type="curve" smooth="yes"/>
      <point x="287" y="161" type="line" smooth="yes"/>
      <point x="287" y="157"/>
      <point x="280" y="153"/>
      <point x="275" y="153" type="curve" smooth="yes"/>
      <point x="102" y="153" type="line" smooth="yes"/>
      <point x="98" y="153"/>
      <point x="99" y="159"/>
      <point x="102" y="162" type="curve" smooth="yes"/>
      <point x="369" y="392" type="line" smooth="yes"/>
      <point x="377" y="399"/>
      <point x="380" y="406"/>
      <point x="371" y="406" type="curve" smooth="yes"/>
      <point x="353" y="406" type="line" smooth="yes"/>
      <point x="343" y="406"/>
      <point x="327" y="391"/>
      <point x="314" y="380" type="curve" smooth="yes"/>
      <point x="59" y="157" type="line" smooth="yes"/>
      <point x="41" y="142"/>
      <point x="45" y="141"/>
      <point x="20" y="110" type="curve"/>
      <point x="19" y="109"/>
      <point x="19" y="108"/>
      <point x="19" y="107" type="curve" smooth="yes"/>
      <point x="19" y="103"/>
      <point x="24" y="97"/>
      <point x="29" y="97" type="curve" smooth="yes"/>
      <point x="134" y="97"/>
      <point x="190" y="104"/>
      <point x="272" y="104" type="curve" smooth="yes"/>
      <point x="273" y="104"/>
      <point x="287" y="101"/>
      <point x="287" y="95" type="curve" smooth="yes"/>
      <point x="287" y="80" type="line" smooth="yes"/>
      <point x="287" y="48"/>
      <point x="272" y="30"/>
      <point x="210" y="22" type="curve" smooth="yes"/>
      <point x="202" y="21"/>
      <point x="192" y="17"/>
      <point x="192" y="10" type="curve" smooth="yes"/>
      <point x="192" y="1"/>
      <point x="203" y="-3"/>
    </contour>
  </outline>
</glyph>
<glyph name="six" format="1">
  <advance width="480"/>
  <unicode hex="0036"/>
  <outline>
    <contour>
      <point x="252" y="-16" type="curve" smooth="yes"/>
      <point x="349" y="-16"/>
      <point x="457" y="38"/>
      <point x="457" y="120" type="curve" smooth="yes"/>
      <point x="457" y="168"/>
      <point x="395" y="204"/>
      <point x="326" y="204" type="curve" smooth="yes"/>
      <point x="290" y="204"/>
      <point x="257" y="191"/>
      <point x="232" y="178" type="curve" smooth="yes"/>
      <point x="219" y="172"/>
      <point x="209" y="165"/>
      <point x="201" y="158" type="curve" smooth="yes"/>
      <point x="190" y="149"/>
      <point x="201" y="142"/>
      <point x="214" y="146" type="curve" smooth="yes"/>
      <point x="229" y="150"/>
      <point x="253" y="152"/>
      <point x="288" y="152" type="curve" smooth="yes"/>
      <point x="341" y="152"/>
      <point x="379" y="122"/>
      <point x="379" y="88" type="curve" smooth="yes"/>
      <point x="379" y="43"/>
      <point x="330" y="22"/>
      <point x="276" y="23" type="curve" smooth="yes"/>
      <point x="210" y="24"/>
      <point x="135" y="57"/>
      <point x="134" y="122" type="curve" smooth="yes"/>
      <point x="133" y="187"/>
      <point x="192" y="264"/>
      <point x="225" y="293" type="curve" smooth="yes"/>
      <point x="276" y="342"/>
      <point x="337" y="367"/>
      <point x="427" y="394" type="curve" smooth="yes"/>
      <point x="434" y="396"/>
      <point x="453" y="400"/>
      <point x="453" y="412" type="curve" smooth="yes"/>
      <point x="453" y="416"/>
      <point x="447" y="420"/>
      <point x="435" y="418" type="curve" smooth="yes"/>
      <point x="312" y="396"/>
      <point x="218" y="343"/>
      <point x="168" y="310" type="curve" smooth="yes"/>
      <point x="130" y="285"/>
      <point x="47" y="220"/>
      <point x="47" y="122" type="curve" smooth="yes"/>
      <point x="47" y="30"/>
      <point x="149" y="-16"/>
    </contour>
  </outline>
</glyph>
<glyph name="less" format="1">
  <advance width="560"/>
  <unicode hex="003C"/>
  <outline>
    <contour>
      <point x="487" y="28" type="line" smooth="yes"/>
      <point x="494" y="25"/>
      <point x="507" y="24"/>
      <point x="507" y="37" type="curve" smooth="yes"/>
      <point x="507" y="46"/>
      <point x="502" y="78"/>
      <point x="483" y="85" type="curve" smooth="yes"/>
      <point x="133" y="219" type="line"/>
      <point x="130" y="220"/>
      <point x="129" y="223"/>
      <point x="132" y="224" type="curve"/>
      <point x="475" y="358" type="line" smooth="yes"/>
      <point x="495" y="366"/>
      <point x="506" y="397"/>
      <point x="506" y="409" type="curve" smooth="yes"/>
      <point x="506" y="415"/>
      <point x="503" y="419"/>
      <point x="497" y="419" type="curve" smooth="yes"/>
      <point x="496" y="419"/>
      <point x="492" y="417"/>
      <point x="489" y="416" type="curve" smooth="yes"/>
      <point x="86" y="258" type="line" smooth="yes"/>
      <point x="66" y="250"/>
      <point x="53" y="221"/>
      <point x="53" y="212" type="curve" smooth="yes"/>
      <point x="53" y="206"/>
      <point x="77" y="192"/>
      <point x="94" y="185" type="curve" smooth="yes"/>
    </contour>
  </outline>
</glyph>
<glyph name="question" format="1">
  <advance width="376"/>
  <unicode hex="003F"/>
  <outline>
    <contour>
      <point x="146" y="147"/>
      <point x="151" y="154"/>
      <point x="151" y="160" type="curve" smooth="yes"/>
      <point x="151" y="175"/>
      <point x="155" y="188"/>
      <point x="183" y="198" type="curve" smooth="yes"/>
      <point x="215" y="210"/>
      <point x="225" y="213"/>
      <point x="269" y="227" type="curve" smooth="yes"/>
      <point x="289" y="233"/>
      <point x="311" y="256"/>
      <point x="311" y="284" type="curve" smooth="yes"/>
      <point x="311" y="312"/>
      <point x="272" y="348"/>
      <point x="218" y="382" type="curve" smooth="yes"/>
      <point x="186" y="402"/>
      <point x="143" y="420"/>
      <point x="110" y="420" type="curve" smooth="yes"/>
      <point x="93" y="420"/>
      <point x="70" y="402"/>
      <point x="70" y="384" type="curve" smooth="yes"/>
      <point x="70" y="358"/>
      <point x="91" y="328"/>
      <point x="112" y="328" type="curve" smooth="yes"/>
      <point x="122" y="328"/>
      <point x="129" y="329"/>
      <point x="136" y="331" type="curve" smooth="yes"/>
      <point x="143" y="331"/>
      <point x="150" y="333"/>
      <point x="159" y="333" type="curve" smooth="yes"/>
      <point x="219" y="333"/>
      <point x="255" y="324"/>
      <point x="255" y="310" type="curve" smooth="yes"/>
      <point x="255" y="294"/>
      <point x="223" y="294"/>
      <point x="195" y="286" type="curve" smooth="yes"/>
      <point x="113" y="264"/>
      <point x="98" y="244"/>
      <point x="98" y="212" type="curve" smooth="yes"/>
      <point x="98" y="187"/>
      <point x="107" y="175"/>
      <point x="114" y="163" type="curve" smooth="yes"/>
      <point x="119" y="154"/>
      <point x="129" y="147"/>
      <point x="136" y="147" type="curve" smooth="yes"/>
    </contour>
    <contour>
      <point x="183" y="-14"/>
      <point x="210" y="13"/>
      <point x="210" y="46" type="curve" smooth="yes"/>
      <point x="210" y="79"/>
      <point x="183" y="106"/>
      <point x="150" y="106" type="curve" smooth="yes"/>
      <point x="117" y="106"/>
      <point x="90" y="79"/>
      <point x="90" y="46" type="curve" smooth="yes"/>
      <point x="90" y="13"/>
      <point x="117" y="-14"/>
      <point x="150" y="-14" type="curve" smooth="yes"/>
    </contour>
  </outline>
</glyph>
<glyph name="A" format="1">
  <advance width="692"/>
  <unicode hex="0041"/>
  <outline>
    <contour>
      <point x="27" y="-5" type="curve" smooth="yes"/>
      <point x="60" y="-5"/>
      <point x="103" y="1"/>
      <point x="147" y="1" type="curve" smooth="yes"/>
      <point x="184" y="1"/>
      <point x="220" y="-1"/>
      <point x="238" y="-1" type="curve" smooth="yes"/>
      <point x="255" y="-1"/>
      <point x="267" y="2"/>
      <point x="267" y="10" type="curve" smooth="yes"/>
      <point x="267" y="19"/>
      <point x="258" y="24"/>
      <point x="239" y="30" type="curve" smooth="yes"/>
      <point x="212" y="38"/>
      <point x="189" y="48"/>
      <point x="189" y="68" type="curve" smooth="yes"/>
      <point x="189" y="95"/>
      <point x="209" y="130"/>
      <point x="215" y="141" type="curve" smooth="yes"/>
      <point x="220" y="150"/>
      <point x="226" y="153"/>
      <point x="232" y="153" type="curve" smooth="yes"/>
      <point x="419" y="153" type="line" smooth="yes"/>
      <point x="435" y="153"/>
      <point x="440" y="152"/>
      <point x="442" y="148" type="curve" smooth="yes"/>
      <point x="456" y="124"/>
      <point x="476" y="89"/>
      <point x="476" y="76" type="curve" smooth="yes"/>
      <point x="476" y="54"/>
      <point x="461" y="38"/>
      <point x="423" y="31" type="curve" smooth="yes"/>
      <point x="408" y="28"/>
      <point x="395" y="21"/>
      <point x="395" y="12" type="curve" smooth="yes"/>
      <point x="395" y="4"/>
      <point x="407" y="0"/>
      <point x="424" y="0" type="curve" smooth="yes"/>
      <point x="448" y="0"/>
      <point x="490" y="1"/>
      <point x="529" y="1" type="curve" smooth="yes"/>
      <point x="574" y="1"/>
      <point x="640" y="-5"/>
      <point x="668" y="-5" type="curve" smooth="yes"/>
      <point x="685" y="-5"/>
      <point x="697" y="-3"/>
      <point x="697" y="5" type="curve" smooth="yes"/>
      <point x="697" y="14"/>
      <point x="685" y="24"/>
      <point x="658" y="28" type="curve" smooth="yes"/>
      <point x="611" y="35"/>
      <point x="576" y="48"/>
      <point x="538" y="128" type="curve" smooth="yes"/>
      <point x="505" y="190"/>
      <point x="449" y="296"/>
      <point x="385" y="427" type="curve" smooth="yes"/>
      <point x="382" y="433"/>
      <point x="381" y="438"/>
      <point x="378" y="442" type="curve"/>
      <point x="377" y="443"/>
      <point x="374" y="443"/>
      <point x="373" y="442" type="curve"/>
      <point x="369" y="438"/>
      <point x="366" y="425"/>
      <point x="354" y="420" type="curve" smooth="yes"/>
      <point x="342" y="415"/>
      <point x="330" y="413"/>
      <point x="318" y="411" type="curve"/>
      <point x="316" y="397"/>
      <point x="311" y="385"/>
      <point x="304" y="373" type="curve" smooth="yes"/>
      <point x="236" y="253"/>
      <point x="192" y="179"/>
      <point x="143" y="108" type="curve"/>
      <point x="116" y="58"/>
      <point x="79" y="41"/>
      <point x="38" y="31" type="curve" smooth="yes"/>
      <point x="11" y="24"/>
      <point x="-2" y="17"/>
      <point x="-2" y="8" type="curve" smooth="yes"/>
      <point x="-2" y="0"/>
      <point x="10" y="-5"/>
    </contour>
    <contour>
      <point x="265" y="187" type="line" smooth="yes"/>
      <point x="252" y="187"/>
      <point x="244" y="187"/>
      <point x="244" y="192" type="curve" smooth="yes"/>
      <point x="244" y="193"/>
      <point x="245" y="195"/>
      <point x="246" y="197" type="curve"/>
      <point x="332" y="340" type="line" smooth="yes"/>
      <point x="336" y="347"/>
      <point x="338" y="351"/>
      <point x="340" y="351" type="curve" smooth="yes"/>
      <point x="343" y="351"/>
      <point x="345" y="347"/>
      <point x="349" y="339" type="curve" smooth="yes"/>
      <point x="419" y="197" type="line"/>
      <point x="420" y="194"/>
      <point x="421" y="192"/>
      <point x="421" y="190" type="curve" smooth="yes"/>
      <point x="421" y="187"/>
      <point x="417" y="187"/>
      <point x="407" y="187" type="curve" smooth="yes"/>
    </contour>
  </outline>
</glyph>
<glyph name="D" format="1">
  <advance width="754"/>
  <unicode hex="0044"/>
  <outline>
    <contour>
      <point x="371" y="-7" type="curve" smooth="yes"/>
      <point x="562" y="-7"/>
      <point x="719" y="92"/>
      <point x="719" y="213" type="curve" smooth="yes"/>
      <point x="719" y="324"/>
      <point x="611" y="414"/>
      <point x="340" y="414" type="curve" smooth="yes"/>
      <point x="313" y="414"/>
      <point x="212" y="406"/>
      <point x="169" y="406" type="curve" smooth="yes"/>
      <point x="121" y="406"/>
      <point x="109" y="408"/>
      <point x="58" y="408" type="curve" smooth="yes"/>
      <point x="41" y="408"/>
      <point x="29" y="404"/>
      <point x="29" y="395" type="curve" smooth="yes"/>
      <point x="29" y="384"/>
      <point x="39" y="381"/>
      <point x="62" y="377" type="curve" smooth="yes"/>
      <point x="112" y="368"/>
      <point x="129" y="352"/>
      <point x="129" y="304" type="curve" smooth="yes"/>
      <point x="129" y="99" type="line" smooth="yes"/>
      <point x="129" y="51"/>
      <point x="112" y="33"/>
      <point x="62" y="24" type="curve" smooth="yes"/>
      <point x="39" y="20"/>
      <point x="29" y="19"/>
      <point x="29" y="8" type="curve" smooth="yes"/>
      <point x="29" y="-2"/>
      <point x="41" y="-5"/>
      <point x="58" y="-5" type="curve" smooth="yes"/>
      <point x="111" y="-5"/>
      <point x="123" y="0"/>
      <point x="163" y="0" type="curve" smooth="yes"/>
      <point x="242" y="0"/>
      <point x="351" y="-7"/>
    </contour>
    <contour>
      <point x="359" y="28" type="curve" smooth="yes"/>
      <point x="284" y="28"/>
      <point x="209" y="40"/>
      <point x="209" y="121" type="curve" smooth="yes"/>
      <point x="209" y="322" type="line" smooth="yes"/>
      <point x="209" y="382"/>
      <point x="258" y="383"/>
      <point x="345" y="383" type="curve" smooth="yes"/>
      <point x="482" y="383"/>
      <point x="624" y="317"/>
      <point x="624" y="204" type="curve" smooth="yes"/>
      <point x="624" y="101"/>
      <point x="515" y="28"/>
    </contour>
  </outline>
</glyph>
<glyph name="J" format="1">
  <advance width="340"/>
  <unicode hex="004A"/>
  <outline>
    <contour>
      <point x="34" y="-140" type="curve" smooth="yes"/>
      <point x="73" y="-140"/>
      <point x="104" y="-118"/>
      <point x="131" y="-86" type="curve" smooth="yes"/>
      <point x="163" y="-48"/>
      <point x="210" y="23"/>
      <point x="210" y="107" type="curve" smooth="yes"/>
      <point x="210" y="307" type="line" smooth="yes"/>
      <point x="210" y="353"/>
      <point x="217" y="369"/>
      <point x="267" y="378" type="curve" smooth="yes"/>
      <point x="290" y="382"/>
      <point x="300" y="389"/>
      <point x="300" y="398" type="curve" smooth="yes"/>
      <point x="300" y="406"/>
      <point x="288" y="409"/>
      <point x="271" y="409" type="curve" smooth="yes"/>
      <point x="217" y="409"/>
      <point x="214" y="406"/>
      <point x="177" y="406" type="curve" smooth="yes"/>
      <point x="131" y="406"/>
      <point x="114" y="409"/>
      <point x="60" y="409" type="curve" smooth="yes"/>
      <point x="43" y="409"/>
      <point x="31" y="406"/>
      <point x="31" y="398" type="curve" smooth="yes"/>
      <point x="31" y="389"/>
      <point x="42" y="382"/>
      <point x="64" y="378" type="curve" smooth="yes"/>
      <point x="112" y="369"/>
      <point x="130" y="353"/>
      <point x="130" y="307" type="curve" smooth="yes"/>
      <point x="130" y="59" type="line" smooth="yes"/>
      <point x="130" y="-38"/>
      <point x="111" y="-99"/>
      <point x="64" y="-99" type="curve" smooth="yes"/>
      <point x="47" y="-99"/>
      <point x="34" y="-91"/>
      <point x="17" y="-69" type="curve" smooth="yes"/>
      <point x="3" y="-51"/>
      <point x="-13" y="-44"/>
      <point x="-30" y="-44" type="curve" smooth="yes"/>
      <point x="-45" y="-44"/>
      <point x="-69" y="-68"/>
      <point x="-69" y="-91" type="curve" smooth="yes"/>
      <point x="-69" y="-122"/>
      <point x="-34" y="-140"/>
    </contour>
  </outline>
</glyph>
<glyph name="K" format="1">
  <advance width="681"/>
  <unicode hex="004B"/>
  <outline>
    <contour>
      <point x="60" y="-5" type="curve" smooth="yes"/>
      <point x="114" y="-5"/>
      <point x="137" y="2"/>
      <point x="186" y="2" type="curve" smooth="yes"/>
      <point x="224" y="2"/>
      <point x="230" y="-5"/>
      <point x="284" y="-5" type="curve" smooth="yes"/>
      <point x="301" y="-5"/>
      <point x="313" y="-2"/>
      <point x="313" y="6" type="curve" smooth="yes"/>
      <point x="313" y="15"/>
      <point x="303" y="20"/>
      <point x="280" y="24" type="curve" smooth="yes"/>
      <point x="230" y="33"/>
      <point x="216" y="67"/>
      <point x="213" y="110" type="curve" smooth="yes"/>
      <point x="211" y="132"/>
      <point x="213" y="154"/>
      <point x="211" y="176" type="curve"/>
      <point x="211" y="183"/>
      <point x="210" y="197"/>
      <point x="215" y="197" type="curve" smooth="yes"/>
      <point x="220" y="197"/>
      <point x="228" y="193"/>
      <point x="238" y="186" type="curve" smooth="yes"/>
      <point x="400" y="71" type="line" smooth="yes"/>
      <point x="415" y="61"/>
      <point x="439" y="48"/>
      <point x="441" y="38" type="curve" smooth="yes"/>
      <point x="443" y="34"/>
      <point x="439" y="30"/>
      <point x="428" y="27" type="curve"/>
      <point x="409" y="23"/>
      <point x="401" y="19"/>
      <point x="401" y="10" type="curve" smooth="yes"/>
      <point x="401" y="2"/>
      <point x="413" y="-1"/>
      <point x="430" y="-1" type="curve" smooth="yes"/>
      <point x="475" y="-1"/>
      <point x="495" y="0"/>
      <point x="520" y="0" type="curve" smooth="yes"/>
      <point x="575" y="0"/>
      <point x="600" y="-5"/>
      <point x="659" y="-5" type="curve" smooth="yes"/>
      <point x="676" y="-5"/>
      <point x="688" y="-2"/>
      <point x="688" y="6" type="curve" smooth="yes"/>
      <point x="688" y="15"/>
      <point x="678" y="19"/>
      <point x="655" y="24" type="curve" smooth="yes"/>
      <point x="610" y="34"/>
      <point x="567" y="60"/>
      <point x="515" y="94" type="curve" smooth="yes"/>
      <point x="317" y="223" type="line" smooth="yes"/>
      <point x="309" y="228"/>
      <point x="306" y="238"/>
      <point x="312" y="241" type="curve"/>
      <point x="367" y="266"/>
      <point x="422" y="291"/>
      <point x="477" y="316" type="curve"/>
      <point x="528" y="335"/>
      <point x="593" y="367"/>
      <point x="642" y="379" type="curve" smooth="yes"/>
      <point x="665" y="385"/>
      <point x="675" y="390"/>
      <point x="675" y="399" type="curve" smooth="yes"/>
      <point x="675" y="406"/>
      <point x="666" y="410"/>
      <point x="653" y="410" type="curve" smooth="yes"/>
      <point x="640" y="410"/>
      <point x="548" y="406"/>
      <point x="491" y="406" type="curve" smooth="yes"/>
      <point x="437" y="406" type="line" smooth="yes"/>
      <point x="420" y="406"/>
      <point x="408" y="403"/>
      <point x="408" y="395" type="curve" smooth="yes"/>
      <point x="408" y="386"/>
      <point x="416" y="381"/>
      <point x="439" y="375" type="curve" smooth="yes"/>
      <point x="452" y="371"/>
      <point x="457" y="367"/>
      <point x="457" y="361" type="curve" smooth="yes"/>
      <point x="457" y="353"/>
      <point x="447" y="346"/>
      <point x="417" y="331" type="curve" smooth="yes"/>
      <point x="256" y="249" type="line" smooth="yes"/>
      <point x="236" y="239"/>
      <point x="223" y="238"/>
      <point x="216" y="238" type="curve" smooth="yes"/>
      <point x="211" y="238"/>
      <point x="211" y="252"/>
      <point x="211" y="257" type="curve" smooth="yes"/>
      <point x="211" y="306" type="line" smooth="yes"/>
      <point x="211" y="345"/>
      <point x="215" y="368"/>
      <point x="265" y="377" type="curve" smooth="yes"/>
      <point x="288" y="381"/>
      <point x="298" y="388"/>
      <point x="298" y="397" type="curve" smooth="yes"/>
      <point x="298" y="405"/>
      <point x="286" y="408"/>
      <point x="269" y="408" type="curve" smooth="yes"/>
      <point x="215" y="408"/>
      <point x="210" y="406"/>
      <point x="172" y="406" type="curve" smooth="yes"/>
      <point x="128" y="406"/>
      <point x="114" y="408"/>
      <point x="60" y="408" type="curve" smooth="yes"/>
      <point x="43" y="408"/>
      <point x="31" y="405"/>
      <point x="31" y="397" type="curve" smooth="yes"/>
      <point x="31" y="388"/>
      <point x="41" y="381"/>
      <point x="64" y="377" type="curve" smooth="yes"/>
      <point x="114" y="368"/>
      <point x="131" y="352"/>
      <point x="131" y="306" type="curve" smooth="yes"/>
      <point x="131" y="101" type="line" smooth="yes"/>
      <point x="131" y="51"/>
      <point x="114" y="33"/>
      <point x="64" y="24" type="curve" smooth="yes"/>
      <point x="41" y="20"/>
      <point x="31" y="15"/>
      <point x="31" y="6" type="curve" smooth="yes"/>
      <point x="31" y="-2"/>
      <point x="43" y="-5"/>
    </contour>
  </outline>
</glyph>
<glyph name="N" format="1">
  <advance width="792"/>
  <unicode hex="004E"/>
  <outline>
    <contour>
      <point x="668" y="-17" type="curve" smooth="yes"/>
      <point x="678" y="-17"/>
      <point x="689" y="-13"/>
      <point x="689" y="8" type="curve" smooth="yes"/>
      <point x="689" y="21"/>
      <point x="684" y="57"/>
      <point x="684" y="105" type="curve" smooth="yes"/>
      <point x="684" y="180"/>
      <point x="685" y="316"/>
      <point x="686" y="325" type="curve" smooth="yes"/>
      <point x="688" y="358"/>
      <point x="699" y="370"/>
      <point x="749" y="379" type="curve" smooth="yes"/>
      <point x="772" y="383"/>
      <point x="782" y="390"/>
      <point x="782" y="399" type="curve" smooth="yes"/>
      <point x="782" y="407"/>
      <point x="770" y="410"/>
      <point x="753" y="410" type="curve" smooth="yes"/>
      <point x="692" y="410"/>
      <point x="686" y="407"/>
      <point x="666" y="407" type="curve" smooth="yes"/>
      <point x="619" y="407"/>
      <point x="600" y="407"/>
      <point x="581" y="407" type="curve" smooth="yes"/>
      <point x="564" y="407"/>
      <point x="540" y="404"/>
      <point x="540" y="396" type="curve" smooth="yes"/>
      <point x="540" y="387"/>
      <point x="562" y="380"/>
      <point x="585" y="376" type="curve" smooth="yes"/>
      <point x="616" y="370"/>
      <point x="642" y="355"/>
      <point x="643" y="321" type="curve" smooth="yes"/>
      <point x="643" y="247"/>
      <point x="642" y="134"/>
      <point x="641" y="119" type="curve" smooth="yes"/>
      <point x="640" y="104"/>
      <point x="636" y="98"/>
      <point x="631" y="98" type="curve" smooth="yes"/>
      <point x="623" y="98"/>
      <point x="611" y="105"/>
      <point x="606" y="108" type="curve" smooth="yes"/>
      <point x="586" y="120"/>
      <point x="241" y="376"/>
      <point x="223" y="392" type="curve" smooth="yes"/>
      <point x="214" y="400"/>
      <point x="201" y="406"/>
      <point x="189" y="406" type="curve" smooth="yes"/>
      <point x="117" y="406"/>
      <point x="113" y="411"/>
      <point x="35" y="411" type="curve" smooth="yes"/>
      <point x="28" y="411"/>
      <point x="12" y="409"/>
      <point x="12" y="397" type="curve" smooth="yes"/>
      <point x="12" y="385"/>
      <point x="37" y="375"/>
      <point x="43" y="373" type="curve" smooth="yes"/>
      <point x="102" y="353"/>
      <point x="142" y="331"/>
      <point x="142" y="260" type="curve" smooth="yes"/>
      <point x="142" y="197"/>
      <point x="132" y="136"/>
      <point x="125" y="107" type="curve" smooth="yes"/>
      <point x="115" y="67"/>
      <point x="104" y="35"/>
      <point x="66" y="25" type="curve" smooth="yes"/>
      <point x="43" y="19"/>
      <point x="33" y="15"/>
      <point x="33" y="6" type="curve" smooth="yes"/>
      <point x="33" y="-2"/>
      <point x="45" y="-5"/>
      <point x="62" y="-5" type="curve" smooth="yes"/>
      <point x="116" y="-5"/>
      <point x="117" y="0"/>
      <point x="153" y="0" type="curve" smooth="yes"/>
      <point x="190" y="0"/>
      <point x="193" y="-5"/>
      <point x="247" y="-5" type="curve" smooth="yes"/>
      <point x="264" y="-5"/>
      <point x="276" y="-2"/>
      <point x="276" y="6" type="curve" smooth="yes"/>
      <point x="276" y="15"/>
      <point x="266" y="20"/>
      <point x="243" y="24" type="curve" smooth="yes"/>
      <point x="193" y="33"/>
      <point x="179" y="68"/>
      <point x="179" y="82" type="curve" smooth="yes"/>
      <point x="179" y="131"/>
      <point x="184" y="249"/>
      <point x="184" y="289" type="curve" smooth="yes"/>
      <point x="184" y="301"/>
      <point x="189" y="310"/>
      <point x="193" y="310" type="curve" smooth="yes"/>
      <point x="198" y="310"/>
      <point x="205" y="306"/>
      <point x="217" y="297" type="curve" smooth="yes"/>
      <point x="239" y="281"/>
      <point x="564" y="28"/>
      <point x="582" y="15" type="curve" smooth="yes"/>
      <point x="614" y="-7"/>
      <point x="656" y="-17"/>
    </contour>
  </outline>
</glyph>
<glyph name="O" format="1">
  <advance width="763"/>
  <unicode hex="004F"/>
  <outline>
    <contour>
      <point x="377" y="-14" type="curve" smooth="yes"/>
      <point x="599" y="-14"/>
      <point x="718" y="94"/>
      <point x="718" y="209" type="curve" smooth="yes"/>
      <point x="718" y="336"/>
      <point x="562" y="420"/>
      <point x="386" y="420" type="curve" smooth="yes"/>
      <point x="164" y="420"/>
      <point x="45" y="312"/>
      <point x="45" y="197" type="curve" smooth="yes"/>
      <point x="45" y="70"/>
      <point x="201" y="-14"/>
    </contour>
    <contour>
      <point x="392" y="27" type="curve" smooth="yes"/>
      <point x="225" y="27"/>
      <point x="141" y="117"/>
      <point x="141" y="227" type="curve" smooth="yes"/>
      <point x="141" y="318"/>
      <point x="219" y="378"/>
      <point x="370" y="378" type="curve" smooth="yes"/>
      <point x="537" y="378"/>
      <point x="622" y="289"/>
      <point x="622" y="180" type="curve" smooth="yes"/>
      <point x="622" y="88"/>
      <point x="545" y="27"/>
    </contour>
  </outline>
</glyph>
<glyph name="R" format="1">
  <advance width="713"/>
  <unicode hex="0052"/>
  <outline>
    <contour>
      <point x="638" y="-21" type="curve" smooth="yes"/>
      <point x="663" y="-21"/>
      <point x="719" y="-15"/>
      <point x="719" y="14" type="curve" smooth="yes"/>
      <point x="719" y="22"/>
      <point x="714" y="25"/>
      <point x="704" y="25" type="curve" smooth="yes"/>
      <point x="657" y="25"/>
      <point x="627" y="30"/>
      <point x="581" y="56" type="curve" smooth="yes"/>
      <point x="497" y="105"/>
      <point x="447" y="141"/>
      <point x="385" y="190" type="curve" smooth="yes"/>
      <point x="381" y="196"/>
      <point x="380" y="201"/>
      <point x="385" y="203" type="curve"/>
      <point x="440" y="221"/>
      <point x="503" y="252"/>
      <point x="503" y="308" type="curve" smooth="yes"/>
      <point x="503" y="377"/>
      <point x="424" y="411"/>
      <point x="278" y="411" type="curve" smooth="yes"/>
      <point x="220" y="411"/>
      <point x="201" y="406"/>
      <point x="163" y="406" type="curve" smooth="yes"/>
      <point x="122" y="406"/>
      <point x="119" y="407"/>
      <point x="65" y="407" type="curve" smooth="yes"/>
      <point x="48" y="407"/>
      <point x="36" y="404"/>
      <point x="36" y="396" type="curve" smooth="yes"/>
      <point x="36" y="387"/>
      <point x="46" y="378"/>
      <point x="69" y="376" type="curve" smooth="yes"/>
      <point x="126" y="371"/>
      <point x="130" y="356"/>
      <point x="130" y="280" type="curve" smooth="yes"/>
      <point x="130" y="100" type="line" smooth="yes"/>
      <point x="130" y="51"/>
      <point x="107" y="33"/>
      <point x="57" y="24" type="curve" smooth="yes"/>
      <point x="34" y="20"/>
      <point x="24" y="15"/>
      <point x="24" y="6" type="curve" smooth="yes"/>
      <point x="24" y="-2"/>
      <point x="36" y="-5"/>
      <point x="53" y="-5" type="curve" smooth="yes"/>
      <point x="107" y="-5"/>
      <point x="132" y="2"/>
      <point x="183" y="2" type="curve" smooth="yes"/>
      <point x="221" y="2"/>
      <point x="227" y="-5"/>
      <point x="281" y="-5" type="curve" smooth="yes"/>
      <point x="298" y="-5"/>
      <point x="310" y="-2"/>
      <point x="310" y="6" type="curve" smooth="yes"/>
      <point x="310" y="15"/>
      <point x="300" y="20"/>
      <point x="277" y="24" type="curve" smooth="yes"/>
      <point x="227" y="33"/>
      <point x="210" y="67"/>
      <point x="210" y="110" type="curve" smooth="yes"/>
      <point x="210" y="164" type="line" smooth="yes"/>
      <point x="210" y="176"/>
      <point x="214" y="185"/>
      <point x="225" y="184" type="curve" smooth="yes"/>
      <point x="243" y="182"/>
      <point x="275" y="177"/>
      <point x="304" y="163" type="curve" smooth="yes"/>
      <point x="324" y="153"/>
      <point x="339" y="142"/>
      <point x="355" y="128" type="curve" smooth="yes"/>
      <point x="418" y="75"/>
      <point x="445" y="56"/>
      <point x="488" y="24" type="curve" smooth="yes"/>
      <point x="533" y="-9"/>
      <point x="581" y="-21"/>
    </contour>
    <contour>
      <point x="263" y="207" type="curve" smooth="yes"/>
      <point x="230" y="207"/>
      <point x="210" y="209"/>
      <point x="210" y="242" type="curve" smooth="yes"/>
      <point x="210" y="284"/>
      <point x="211" y="314"/>
      <point x="212" y="332" type="curve" smooth="yes"/>
      <point x="214" y="368"/>
      <point x="223" y="381"/>
      <point x="266" y="381" type="curve" smooth="yes"/>
      <point x="392" y="381"/>
      <point x="413" y="341"/>
      <point x="413" y="294" type="curve" smooth="yes"/>
      <point x="413" y="249"/>
      <point x="355" y="207"/>
    </contour>
  </outline>
</glyph>
<glyph name="asciicircum" format="1">
  <advance width="500"/>
  <unicode hex="005E"/>
  <outline>
    <contour>
      <point x="78" y="168"/>
      <point x="98" y="174"/>
      <point x="107" y="182" type="curve" smooth="yes"/>
      <point x="244" y="305" type="line"/>
      <point x="248" y="309"/>
      <point x="249" y="309"/>
      <point x="254" y="305" type="curve"/>
      <point x="395" y="184" type="line" smooth="yes"/>
      <point x="405" y="175"/>
      <point x="422" y="169"/>
      <point x="441" y="169" type="curve" smooth="yes"/>
      <point x="450" y="169"/>
      <point x="453" y="179"/>
      <point x="447" y="191" type="curve"/>
      <point x="251" y="368" type="line"/>
      <point x="248" y="368" type="line"/>
      <point x="48" y="183" type="line"/>
      <point x="46" y="181"/>
      <point x="45" y="179"/>
      <point x="45" y="177" type="curve" smooth="yes"/>
      <point x="45" y="173"/>
      <point x="54" y="168"/>
      <point x="59" y="168" type="curve" smooth="yes"/>
    </contour>
  </outline>
</glyph>
<glyph name="grave" format="1">
  <advance width="201"/>
  <unicode hex="0060"/>
  <outline>
    <contour>
      <point x="176" y="292"/>
      <point x="179" y="294"/>
      <point x="179" y="301" type="curve" smooth="yes"/>
      <point x="179" y="305"/>
      <point x="178" y="311"/>
      <point x="175" y="319" type="curve" smooth="yes"/>
      <point x="161" y="356"/>
      <point x="114" y="439"/>
      <point x="98" y="466" type="curve" smooth="yes"/>
      <point x="92" y="476"/>
      <point x="81" y="484"/>
      <point x="71" y="484" type="curve" smooth="yes"/>
      <point x="46" y="484"/>
      <point x="22" y="477"/>
      <point x="22" y="463" type="curve" smooth="yes"/>
      <point x="22" y="455"/>
      <point x="26" y="451"/>
      <point x="32" y="442" type="curve" smooth="yes"/>
      <point x="56" y="407"/>
      <point x="114" y="339"/>
      <point x="140" y="313" type="curve" smooth="yes"/>
      <point x="154" y="299"/>
      <point x="164" y="292"/>
      <point x="171" y="292" type="curve" smooth="yes"/>
    </contour>
  </outline>
</glyph>
<glyph name="c" format="1">
  <advance width="407"/>
  <unicode hex="0063"/>
  <outline>
    <contour>
      <point x="278" y="-15"/>
      <point x="325" y="13"/>
      <point x="350" y="40" type="curve" smooth="yes"/>
      <point x="365" y="56"/>
      <point x="372" y="71"/>
      <point x="372" y="81" type="curve" smooth="yes"/>
      <point x="372" y="86"/>
      <point x="367" y="90"/>
      <point x="361" y="90" type="curve" smooth="yes"/>
      <point x="358" y="90"/>
      <point x="354" y="90"/>
      <point x="351" y="87" type="curve" smooth="yes"/>
      <point x="324" y="61"/>
      <point x="295" y="45"/>
      <point x="256" y="45" type="curve" smooth="yes"/>
      <point x="171" y="45"/>
      <point x="104" y="70"/>
      <point x="104" y="130" type="curve" smooth="yes"/>
      <point x="104" y="179"/>
      <point x="149" y="222"/>
      <point x="214" y="222" type="curve" smooth="yes"/>
      <point x="246" y="222"/>
      <point x="280" y="197"/>
      <point x="306" y="176" type="curve" smooth="yes"/>
      <point x="314" y="170"/>
      <point x="323" y="164"/>
      <point x="330" y="164" type="curve" smooth="yes"/>
      <point x="349" y="164"/>
      <point x="372" y="196"/>
      <point x="372" y="210" type="curve" smooth="yes"/>
      <point x="372" y="215"/>
      <point x="368" y="219"/>
      <point x="360" y="224" type="curve" smooth="yes"/>
      <point x="325" y="248"/>
      <point x="289" y="259"/>
      <point x="246" y="259" type="curve" smooth="yes"/>
      <point x="129" y="259"/>
      <point x="35" y="193"/>
      <point x="35" y="110" type="curve" smooth="yes"/>
      <point x="35" y="39"/>
      <point x="112" y="-15"/>
      <point x="213" y="-15" type="curve" smooth="yes"/>
    </contour>
  </outline>
</glyph>
<glyph name="f" format="1">
  <advance width="318"/>
  <unicode hex="0066"/>
  <outline>
    <contour>
      <point x="84" y="-3"/>
      <point x="92" y="2"/>
      <point x="127" y="2" type="curve" smooth="yes"/>
      <point x="162" y="2"/>
      <point x="189" y="-3"/>
      <point x="229" y="-3" type="curve" smooth="yes"/>
      <point x="242" y="-3"/>
      <point x="249" y="0"/>
      <point x="249" y="8" type="curve" smooth="yes"/>
      <point x="249" y="18"/>
      <point x="240" y="22"/>
      <point x="226" y="24" type="curve" smooth="yes"/>
      <point x="172" y="30"/>
      <point x="160" y="41"/>
      <point x="160" y="68" type="curve" smooth="yes"/>
      <point x="160" y="184" type="line" smooth="yes"/>
      <point x="160" y="192"/>
      <point x="163" y="197"/>
      <point x="179" y="197" type="curve" smooth="yes"/>
      <point x="294" y="197" type="line" smooth="yes"/>
      <point x="297" y="197"/>
      <point x="301" y="200"/>
      <point x="303" y="205" type="curve" smooth="yes"/>
      <point x="306" y="213"/>
      <point x="309" y="225"/>
      <point x="309" y="234" type="curve" smooth="yes"/>
      <point x="309" y="240"/>
      <point x="303" y="245"/>
      <point x="296" y="245" type="curve" smooth="yes"/>
      <point x="171" y="245" type="line" smooth="yes"/>
      <point x="165" y="245"/>
      <point x="160" y="247"/>
      <point x="160" y="255" type="curve" smooth="yes"/>
      <point x="160" y="323" type="line" smooth="yes"/>
      <point x="160" y="376"/>
      <point x="205" y="402"/>
      <point x="268" y="402" type="curve" smooth="yes"/>
      <point x="312" y="402"/>
      <point x="335" y="383"/>
      <point x="352" y="366" type="curve" smooth="yes"/>
      <point x="365" y="353"/>
      <point x="374" y="343"/>
      <point x="386" y="343" type="curve" smooth="yes"/>
      <point x="404" y="343"/>
      <point x="420" y="356"/>
      <point x="420" y="383" type="curve" smooth="yes"/>
      <point x="420" y="418"/>
      <point x="384" y="443"/>
      <point x="310" y="443" type="curve" smooth="yes"/>
      <point x="225" y="443"/>
      <point x="90" y="402"/>
      <point x="90" y="264" type="curve" smooth="yes"/>
      <point x="90" y="251" type="line"/>
      <point x="70" y="241"/>
      <point x="55" y="233"/>
      <point x="31" y="221" type="curve" smooth="yes"/>
      <point x="29" y="220"/>
      <point x="24" y="218"/>
      <point x="24" y="215" type="curve" smooth="yes"/>
      <point x="24" y="208"/>
      <point x="34" y="198"/>
      <point x="38" y="197" type="curve"/>
      <point x="59" y="195"/>
      <point x="77" y="195"/>
      <point x="90" y="195" type="curve"/>
      <point x="90" y="68" type="line" smooth="yes"/>
      <point x="90" y="41"/>
      <point x="78" y="31"/>
      <point x="47" y="24" type="curve" smooth="yes"/>
      <point x="33" y="21"/>
      <point x="24" y="18"/>
      <point x="24" y="8" type="curve" smooth="yes"/>
      <point x="24" y="0"/>
      <point x="31" y="-3"/>
      <point x="44" y="-3" type="curve" smooth="yes"/>
    </contour>
  </outline>
</glyph>
<glyph name="j" format="1">
  <advance width="226"/>
  <unicode hex="006A"/>
  <outline>
    <contour>
      <point x="1" y="-185" type="curve" smooth="yes"/>
      <point x="41" y="-185"/>
      <point x="104" y="-136"/>
      <point x="129" y="-86" type="curve" smooth="yes"/>
      <point x="158" y="-28"/>
      <point x="159" y="46"/>
      <point x="159" y="91" type="curve" smooth="yes"/>
      <point x="159" y="100" type="line" smooth="yes"/>
      <point x="159" y="145"/>
      <point x="162" y="213"/>
      <point x="166" y="254" type="curve"/>
      <point x="166" y="257"/>
      <point x="163" y="259"/>
      <point x="159" y="259" type="curve" smooth="yes"/>
      <point x="157" y="259"/>
      <point x="153" y="256"/>
      <point x="146" y="252" type="curve" smooth="yes"/>
      <point x="126" y="241"/>
      <point x="92" y="214"/>
      <point x="42" y="202" type="curve" smooth="yes"/>
      <point x="38" y="201"/>
      <point x="35" y="195"/>
      <point x="35" y="190" type="curve" smooth="yes"/>
      <point x="35" y="184"/>
      <point x="38" y="178"/>
      <point x="43" y="177" type="curve" smooth="yes"/>
      <point x="77" y="170"/>
      <point x="89" y="140"/>
      <point x="89" y="104" type="curve" smooth="yes"/>
      <point x="89" y="69" type="line" smooth="yes"/>
      <point x="89" y="21"/>
      <point x="86" y="-73"/>
      <point x="57" y="-115" type="curve" smooth="yes"/>
      <point x="38" y="-142"/>
      <point x="15" y="-154"/>
      <point x="-9" y="-158" type="curve"/>
      <point x="-11" y="-159"/>
      <point x="-20" y="-167"/>
      <point x="-20" y="-175" type="curve" smooth="yes"/>
      <point x="-20" y="-182"/>
      <point x="-6" y="-185"/>
    </contour>
    <contour>
      <point x="116" y="341" type="curve" smooth="yes"/>
      <point x="145" y="341"/>
      <point x="167" y="363"/>
      <point x="167" y="391" type="curve" smooth="yes"/>
      <point x="167" y="420"/>
      <point x="145" y="442"/>
      <point x="116" y="442" type="curve" smooth="yes"/>
      <point x="88" y="442"/>
      <point x="66" y="420"/>
      <point x="66" y="391" type="curve" smooth="yes"/>
      <point x="66" y="363"/>
      <point x="88" y="341"/>
    </contour>
  </outline>
</glyph>
<glyph name="k" format="1">
  <advance width="469"/>
  <unicode hex="006B"/>
  <outline>
    <contour>
      <point x="42" y="-3" type="curve" smooth="yes"/>
      <point x="81" y="-3"/>
      <point x="85" y="2"/>
      <point x="120" y="2" type="curve" smooth="yes"/>
      <point x="155" y="2"/>
      <point x="151" y="-3"/>
      <point x="190" y="-3" type="curve" smooth="yes"/>
      <point x="195" y="-3"/>
      <point x="213" y="-2"/>
      <point x="213" y="8" type="curve" smooth="yes"/>
      <point x="213" y="18"/>
      <point x="201" y="20"/>
      <point x="190" y="24" type="curve" smooth="yes"/>
      <point x="170" y="30"/>
      <point x="155" y="38"/>
      <point x="155" y="65" type="curve" smooth="yes"/>
      <point x="154" y="73"/>
      <point x="154" y="84"/>
      <point x="154" y="94" type="curve" smooth="yes"/>
      <point x="154" y="104"/>
      <point x="154" y="114"/>
      <point x="155" y="122" type="curve"/>
      <point x="155" y="124"/>
      <point x="157" y="125"/>
      <point x="160" y="125" type="curve" smooth="yes"/>
      <point x="164" y="125"/>
      <point x="166" y="124"/>
      <point x="170" y="122" type="curve" smooth="yes"/>
      <point x="280" y="61" type="line" smooth="yes"/>
      <point x="289" y="56"/>
      <point x="298" y="52"/>
      <point x="298" y="48" type="curve" smooth="yes"/>
      <point x="298" y="36"/>
      <point x="286" y="30"/>
      <point x="271" y="25" type="curve" smooth="yes"/>
      <point x="262" y="22"/>
      <point x="254" y="17"/>
      <point x="254" y="9" type="curve" smooth="yes"/>
      <point x="254" y="4"/>
      <point x="258" y="0"/>
      <point x="272" y="0" type="curve" smooth="yes"/>
      <point x="340" y="0"/>
      <point x="407" y="-3"/>
      <point x="459" y="-3" type="curve" smooth="yes"/>
      <point x="471" y="-3"/>
      <point x="479" y="-1"/>
      <point x="479" y="8" type="curve" smooth="yes"/>
      <point x="479" y="18"/>
      <point x="463" y="21"/>
      <point x="449" y="26" type="curve" smooth="yes"/>
      <point x="429" y="33"/>
      <point x="392" y="51"/>
      <point x="368" y="63" type="curve" smooth="yes"/>
      <point x="344" y="75"/>
      <point x="278" y="111"/>
      <point x="227" y="138" type="curve" smooth="yes"/>
      <point x="225" y="139"/>
      <point x="224" y="140"/>
      <point x="224" y="141" type="curve" smooth="yes"/>
      <point x="224" y="142"/>
      <point x="226" y="144"/>
      <point x="230" y="145" type="curve" smooth="yes"/>
      <point x="278" y="166"/>
      <point x="341" y="196"/>
      <point x="355" y="203" type="curve" smooth="yes"/>
      <point x="374" y="212"/>
      <point x="399" y="224"/>
      <point x="424" y="231" type="curve" smooth="yes"/>
      <point x="438" y="235"/>
      <point x="449" y="241"/>
      <point x="449" y="249" type="curve" smooth="yes"/>
      <point x="449" y="255"/>
      <point x="444" y="259"/>
      <point x="435" y="259" type="curve" smooth="yes"/>
      <point x="416" y="259"/>
      <point x="375" y="247"/>
      <point x="344" y="247" type="curve" smooth="yes"/>
      <point x="295" y="247" type="line" smooth="yes"/>
      <point x="281" y="247"/>
      <point x="273" y="242"/>
      <point x="273" y="235" type="curve" smooth="yes"/>
      <point x="273" y="229"/>
      <point x="276" y="227"/>
      <point x="285" y="225" type="curve" smooth="yes"/>
      <point x="297" y="222"/>
      <point x="311" y="217"/>
      <point x="311" y="210" type="curve" smooth="yes"/>
      <point x="311" y="209"/>
      <point x="309" y="207"/>
      <point x="302" y="203" type="curve" smooth="yes"/>
      <point x="289" y="195"/>
      <point x="248" y="175"/>
      <point x="196" y="149" type="curve" smooth="yes"/>
      <point x="181" y="142"/>
      <point x="168" y="139"/>
      <point x="160" y="139" type="curve" smooth="yes"/>
      <point x="157" y="139"/>
      <point x="155" y="142"/>
      <point x="155" y="148" type="curve" smooth="yes"/>
      <point x="155" y="300" type="line" smooth="yes"/>
      <point x="155" y="385"/>
      <point x="164" y="420"/>
      <point x="164" y="434" type="curve" smooth="yes"/>
      <point x="164" y="440"/>
      <point x="162" y="443"/>
      <point x="158" y="443" type="curve" smooth="yes"/>
      <point x="155" y="443"/>
      <point x="153" y="442"/>
      <point x="149" y="440" type="curve" smooth="yes"/>
      <point x="120" y="425"/>
      <point x="90" y="412"/>
      <point x="39" y="402" type="curve" smooth="yes"/>
      <point x="34" y="401"/>
      <point x="31" y="396"/>
      <point x="31" y="390" type="curve" smooth="yes"/>
      <point x="31" y="384"/>
      <point x="34" y="378"/>
      <point x="40" y="377" type="curve" smooth="yes"/>
      <point x="73" y="371"/>
      <point x="85" y="351"/>
      <point x="85" y="304" type="curve" smooth="yes"/>
      <point x="85" y="65" type="line" smooth="yes"/>
      <point x="85" y="38"/>
      <point x="62" y="30"/>
      <point x="42" y="24" type="curve" smooth="yes"/>
      <point x="31" y="20"/>
      <point x="19" y="18"/>
      <point x="19" y="8" type="curve" smooth="yes"/>
      <point x="19" y="0"/>
      <point x="27" y="-3"/>
    </contour>
  </outline>
</glyph>
<glyph name="l" format="1">
  <advance width="240"/>
  <unicode hex="006C"/>
  <outline>
    <contour>
      <point x="39" y="-3" type="curve" smooth="yes"/>
      <point x="78" y="-3"/>
      <point x="85" y="2"/>
      <point x="120" y="2" type="curve" smooth="yes"/>
      <point x="155" y="2"/>
      <point x="162" y="-3"/>
      <point x="201" y="-3" type="curve" smooth="yes"/>
      <point x="208" y="-3"/>
      <point x="221" y="-2"/>
      <point x="221" y="6" type="curve" smooth="yes"/>
      <point x="221" y="16"/>
      <point x="209" y="20"/>
      <point x="198" y="24" type="curve"/>
      <point x="178" y="30"/>
      <point x="155" y="35"/>
      <point x="155" y="62" type="curve" smooth="yes"/>
      <point x="155" y="300" type="line" smooth="yes"/>
      <point x="155" y="390"/>
      <point x="162" y="424"/>
      <point x="162" y="436" type="curve" smooth="yes"/>
      <point x="162" y="439"/>
      <point x="160" y="443"/>
      <point x="157" y="443" type="curve" smooth="yes"/>
      <point x="155" y="443"/>
      <point x="153" y="442"/>
      <point x="151" y="441" type="curve" smooth="yes"/>
      <point x="120" y="426"/>
      <point x="89" y="415"/>
      <point x="38" y="402" type="curve" smooth="yes"/>
      <point x="34" y="401"/>
      <point x="31" y="396"/>
      <point x="31" y="390" type="curve" smooth="yes"/>
      <point x="31" y="384"/>
      <point x="34" y="378"/>
      <point x="39" y="377" type="curve" smooth="yes"/>
      <point x="72" y="370"/>
      <point x="85" y="343"/>
      <point x="85" y="304" type="curve" smooth="yes"/>
      <point x="85" y="62" type="line" smooth="yes"/>
      <point x="85" y="35"/>
      <point x="62" y="30"/>
      <point x="42" y="24" type="curve"/>
      <point x="31" y="20"/>
      <point x="19" y="16"/>
      <point x="19" y="6" type="curve" smooth="yes"/>
      <point x="19" y="-2"/>
      <point x="32" y="-3"/>
    </contour>
  </outline>
</glyph>
<glyph name="m" format="1">
  <advance width="778"/>
  <unicode hex="006D"/>
  <outline>
    <contour>
      <point x="44" y="-3" type="curve" smooth="yes"/>
      <point x="84" y="-3"/>
      <point x="90" y="2"/>
      <point x="125" y="2" type="curve" smooth="yes"/>
      <point x="160" y="2"/>
      <point x="166" y="-3"/>
      <point x="206" y="-3" type="curve" smooth="yes"/>
      <point x="218" y="-3"/>
      <point x="226" y="0"/>
      <point x="226" y="8" type="curve" smooth="yes"/>
      <point x="226" y="18"/>
      <point x="214" y="20"/>
      <point x="203" y="24" type="curve" smooth="yes"/>
      <point x="183" y="30"/>
      <point x="160" y="35"/>
      <point x="160" y="62" type="curve" smooth="yes"/>
      <point x="160" y="113" type="line" smooth="yes"/>
      <point x="160" y="147"/>
      <point x="168" y="171"/>
      <point x="187" y="185" type="curve" smooth="yes"/>
      <point x="213" y="204"/>
      <point x="240" y="212"/>
      <point x="274" y="212" type="curve" smooth="yes"/>
      <point x="317" y="212"/>
      <point x="354" y="165"/>
      <point x="354" y="117" type="curve" smooth="yes"/>
      <point x="354" y="62" type="line" smooth="yes"/>
      <point x="354" y="35"/>
      <point x="330" y="30"/>
      <point x="310" y="24" type="curve" smooth="yes"/>
      <point x="299" y="20"/>
      <point x="287" y="18"/>
      <point x="287" y="8" type="curve" smooth="yes"/>
      <point x="287" y="0"/>
      <point x="296" y="-3"/>
      <point x="307" y="-3" type="curve" smooth="yes"/>
      <point x="347" y="-3"/>
      <point x="355" y="2"/>
      <point x="390" y="2" type="curve" smooth="yes"/>
      <point x="425" y="2"/>
      <point x="432" y="-3"/>
      <point x="472" y="-3" type="curve" smooth="yes"/>
      <point x="485" y="-3"/>
      <point x="492" y="0"/>
      <point x="492" y="8" type="curve" smooth="yes"/>
      <point x="492" y="17"/>
      <point x="482" y="21"/>
      <point x="469" y="24" type="curve" smooth="yes"/>
      <point x="449" y="29"/>
      <point x="424" y="35"/>
      <point x="424" y="62" type="curve" smooth="yes"/>
      <point x="424" y="113" type="line" smooth="yes"/>
      <point x="424" y="148"/>
      <point x="434" y="171"/>
      <point x="452" y="185" type="curve" smooth="yes"/>
      <point x="477" y="205"/>
      <point x="505" y="212"/>
      <point x="539" y="212" type="curve" smooth="yes"/>
      <point x="582" y="212"/>
      <point x="619" y="165"/>
      <point x="619" y="117" type="curve" smooth="yes"/>
      <point x="619" y="62" type="line" smooth="yes"/>
      <point x="619" y="35"/>
      <point x="597" y="29"/>
      <point x="576" y="24" type="curve" smooth="yes"/>
      <point x="563" y="21"/>
      <point x="553" y="18"/>
      <point x="553" y="8" type="curve" smooth="yes"/>
      <point x="553" y="0"/>
      <point x="561" y="-3"/>
      <point x="573" y="-3" type="curve" smooth="yes"/>
      <point x="613" y="-3"/>
      <point x="621" y="2"/>
      <point x="656" y="2" type="curve" smooth="yes"/>
      <point x="691" y="2"/>
      <point x="695" y="-3"/>
      <point x="735" y="-3" type="curve" smooth="yes"/>
      <point x="750" y="-3"/>
      <point x="755" y="0"/>
      <point x="755" y="8" type="curve" smooth="yes"/>
      <point x="755" y="17"/>
      <point x="745" y="20"/>
      <point x="732" y="24" type="curve" smooth="yes"/>
      <point x="712" y="30"/>
      <point x="689" y="35"/>
      <point x="689" y="62" type="curve" smooth="yes"/>
      <point x="689" y="120" type="line" smooth="yes"/>
      <point x="689" y="190"/>
      <point x="654" y="259"/>
      <point x="589" y="259" type="curve" smooth="yes"/>
      <point x="524" y="259"/>
      <point x="469" y="228"/>
      <point x="426" y="190" type="curve"/>
      <point x="423" y="190" type="line"/>
      <point x="402" y="241"/>
      <point x="371" y="259"/>
      <point x="323" y="259" type="curve" smooth="yes"/>
      <point x="246" y="259"/>
      <point x="197" y="221"/>
      <point x="167" y="192" type="curve"/>
      <point x="165" y="192" type="line"/>
      <point x="164" y="193"/>
      <point x="163" y="198"/>
      <point x="163" y="204" type="curve" smooth="yes"/>
      <point x="163" y="223"/>
      <point x="168" y="259"/>
      <point x="168" y="268" type="curve" smooth="yes"/>
      <point x="168" y="272"/>
      <point x="165" y="275"/>
      <point x="162" y="275" type="curve" smooth="yes"/>
      <point x="158" y="275"/>
      <point x="155" y="272"/>
      <point x="153" y="271" type="curve" smooth="yes"/>
      <point x="115" y="252"/>
      <point x="105" y="230"/>
      <point x="51" y="219" type="curve" smooth="yes"/>
      <point x="46" y="218"/>
      <point x="43" y="215"/>
      <point x="43" y="207" type="curve" smooth="yes"/>
      <point x="43" y="199"/>
      <point x="46" y="195"/>
      <point x="52" y="194" type="curve" smooth="yes"/>
      <point x="86" y="188"/>
      <point x="90" y="158"/>
      <point x="90" y="122" type="curve" smooth="yes"/>
      <point x="90" y="62" type="line" smooth="yes"/>
      <point x="90" y="35"/>
      <point x="66" y="30"/>
      <point x="47" y="24" type="curve" smooth="yes"/>
      <point x="34" y="20"/>
      <point x="24" y="17"/>
      <point x="24" y="8" type="curve" smooth="yes"/>
      <point x="24" y="-1"/>
      <point x="33" y="-3"/>
    </contour>
  </outline>
</glyph>
<glyph name="r" format="1">
  <advance width="334"/>
  <unicode hex="0072"/>
  <outline>
    <contour>
      <point x="49" y="-3" type="curve" smooth="yes"/>
      <point x="89" y="-3"/>
      <point x="95" y="2"/>
      <point x="130" y="2" type="curve" smooth="yes"/>
      <point x="165" y="2"/>
      <point x="177" y="-3"/>
      <point x="217" y="-3" type="curve" smooth="yes"/>
      <point x="231" y="-3"/>
      <point x="237" y="0"/>
      <point x="237" y="8" type="curve" smooth="yes"/>
      <point x="237" y="17"/>
      <point x="228" y="20"/>
      <point x="214" y="24" type="curve" smooth="yes"/>
      <point x="181" y="34"/>
      <point x="161" y="44"/>
      <point x="161" y="62" type="curve" smooth="yes"/>
      <point x="161" y="93" type="line" smooth="yes"/>
      <point x="161" y="160"/>
      <point x="198" y="177"/>
      <point x="230" y="177" type="curve" smooth="yes"/>
      <point x="240" y="177"/>
      <point x="251" y="172"/>
      <point x="262" y="168" type="curve" smooth="yes"/>
      <point x="273" y="164"/>
      <point x="282" y="159"/>
      <point x="290" y="159" type="curve" smooth="yes"/>
      <point x="310" y="159"/>
      <point x="329" y="191"/>
      <point x="329" y="211" type="curve" smooth="yes"/>
      <point x="329" y="229"/>
      <point x="309" y="243"/>
      <point x="281" y="243" type="curve" smooth="yes"/>
      <point x="242" y="243"/>
      <point x="198" y="214"/>
      <point x="166" y="175" type="curve"/>
      <point x="165" y="175"/>
      <point x="164" y="176"/>
      <point x="164" y="177" type="curve"/>
      <point x="166" y="209"/>
      <point x="167" y="245"/>
      <point x="167" y="252" type="curve"/>
      <point x="167" y="256"/>
      <point x="165" y="259"/>
      <point x="162" y="259" type="curve" smooth="yes"/>
      <point x="159" y="259"/>
      <point x="155" y="257"/>
      <point x="147" y="252" type="curve" smooth="yes"/>
      <point x="126" y="239"/>
      <point x="84" y="212"/>
      <point x="48" y="203" type="curve" smooth="yes"/>
      <point x="44" y="202"/>
      <point x="39" y="197"/>
      <point x="39" y="191" type="curve" smooth="yes"/>
      <point x="39" y="185"/>
      <point x="44" y="179"/>
      <point x="49" y="178" type="curve" smooth="yes"/>
      <point x="82" y="171"/>
      <point x="90" y="142"/>
      <point x="90" y="106" type="curve" smooth="yes"/>
      <point x="90" y="62" type="line" smooth="yes"/>
      <point x="90" y="43"/>
      <point x="77" y="30"/>
      <point x="52" y="24" type="curve" smooth="yes"/>
      <point x="37" y="20"/>
      <point x="29" y="18"/>
      <point x="29" y="8" type="curve" smooth="yes"/>
      <point x="29" y="0"/>
      <point x="35" y="-3"/>
    </contour>
  </outline>
</glyph>
<glyph name="t" format="1">
  <advance width="314"/>
  <unicode hex="0074"/>
  <outline>
    <contour>
      <point x="189" y="-14" type="curve" smooth="yes"/>
      <point x="250" y="-14"/>
      <point x="306" y="36"/>
      <point x="306" y="47" type="curve" smooth="yes"/>
      <point x="306" y="54"/>
      <point x="304" y="61"/>
      <point x="299" y="61" type="curve" smooth="yes"/>
      <point x="298" y="61"/>
      <point x="296" y="60"/>
      <point x="295" y="59" type="curve" smooth="yes"/>
      <point x="278" y="47"/>
      <point x="260" y="41"/>
      <point x="221" y="41" type="curve" smooth="yes"/>
      <point x="178" y="41"/>
      <point x="155" y="73"/>
      <point x="155" y="127" type="curve" smooth="yes"/>
      <point x="155" y="169" type="line" smooth="yes"/>
      <point x="155" y="196"/>
      <point x="161" y="197"/>
      <point x="195" y="197" type="curve" smooth="yes"/>
      <point x="294" y="197" type="line" smooth="yes"/>
      <point x="299" y="197"/>
      <point x="304" y="211"/>
      <point x="304" y="223" type="curve" smooth="yes"/>
      <point x="304" y="235"/>
      <point x="299" y="245"/>
      <point x="294" y="245" type="curve" smooth="yes"/>
      <point x="180" y="245" type="line" smooth="yes"/>
      <point x="164" y="245"/>
      <point x="157" y="249"/>
      <point x="158" y="260" type="curve" smooth="yes"/>
      <point x="161" y="283" type="line" smooth="yes"/>
      <point x="162" y="290"/>
      <point x="154" y="292"/>
      <point x="148" y="292" type="curve" smooth="yes"/>
      <point x="141" y="292"/>
      <point x="137" y="288"/>
      <point x="131" y="282" type="curve" smooth="yes"/>
      <point x="113" y="265"/>
      <point x="84" y="237"/>
      <point x="42" y="221" type="curve" smooth="yes"/>
      <point x="40" y="220"/>
      <point x="35" y="215"/>
      <point x="35" y="212" type="curve" smooth="yes"/>
      <point x="35" y="205"/>
      <point x="40" y="197"/>
      <point x="47" y="197" type="curve" smooth="yes"/>
      <point x="68" y="197" type="line" smooth="yes"/>
      <point x="82" y="197"/>
      <point x="85" y="193"/>
      <point x="85" y="182" type="curve" smooth="yes"/>
      <point x="85" y="105" type="line" smooth="yes"/>
      <point x="85" y="26"/>
      <point x="124" y="-14"/>
    </contour>
  </outline>
</glyph>
<glyph name="w" format="1">
  <advance width="685"/>
  <unicode hex="0077"/>
  <outline>
    <contour>
      <point x="226" y="-23" type="curve" smooth="yes"/>
      <point x="229" y="-23"/>
      <point x="232" y="-20"/>
      <point x="234" y="-16" type="curve"/>
      <point x="341" y="140" type="line" smooth="yes"/>
      <point x="345" y="146"/>
      <point x="348" y="148"/>
      <point x="350" y="148" type="curve" smooth="yes"/>
      <point x="352" y="148"/>
      <point x="356" y="147"/>
      <point x="359" y="142" type="curve" smooth="yes"/>
      <point x="460" y="-16" type="line"/>
      <point x="462" y="-20"/>
      <point x="465" y="-23"/>
      <point x="468" y="-23" type="curve" smooth="yes"/>
      <point x="472" y="-23"/>
      <point x="475" y="-20"/>
      <point x="477" y="-16" type="curve"/>
      <point x="626" y="172" type="line" smooth="yes"/>
      <point x="647" y="198"/>
      <point x="657" y="217"/>
      <point x="677" y="223" type="curve"/>
      <point x="688" y="227"/>
      <point x="700" y="231"/>
      <point x="700" y="241" type="curve" smooth="yes"/>
      <point x="700" y="249"/>
      <point x="688" y="250"/>
      <point x="680" y="250" type="curve" smooth="yes"/>
      <point x="658" y="250"/>
      <point x="649" y="245"/>
      <point x="612" y="245" type="curve" smooth="yes"/>
      <point x="576" y="245"/>
      <point x="566" y="250"/>
      <point x="537" y="250" type="curve" smooth="yes"/>
      <point x="530" y="250"/>
      <point x="517" y="249"/>
      <point x="517" y="241" type="curve" smooth="yes"/>
      <point x="517" y="231"/>
      <point x="529" y="227"/>
      <point x="540" y="223" type="curve" smooth="yes"/>
      <point x="567" y="214"/>
      <point x="580" y="206"/>
      <point x="580" y="185" type="curve" smooth="yes"/>
      <point x="580" y="173"/>
      <point x="573" y="161"/>
      <point x="561" y="146" type="curve" smooth="yes"/>
      <point x="501" y="73" type="line" smooth="yes"/>
      <point x="496" y="67"/>
      <point x="491" y="64"/>
      <point x="488" y="64" type="curve" smooth="yes"/>
      <point x="486" y="64"/>
      <point x="484" y="69"/>
      <point x="480" y="75" type="curve" smooth="yes"/>
      <point x="423" y="166" type="line" smooth="yes"/>
      <point x="412" y="183"/>
      <point x="405" y="195"/>
      <point x="405" y="203" type="curve" smooth="yes"/>
      <point x="405" y="212"/>
      <point x="411" y="218"/>
      <point x="428" y="223" type="curve" smooth="yes"/>
      <point x="439" y="227"/>
      <point x="451" y="231"/>
      <point x="451" y="241" type="curve" smooth="yes"/>
      <point x="451" y="249"/>
      <point x="438" y="250"/>
      <point x="431" y="250" type="curve" smooth="yes"/>
      <point x="409" y="250"/>
      <point x="384" y="245"/>
      <point x="347" y="245" type="curve" smooth="yes"/>
      <point x="310" y="245"/>
      <point x="290" y="250"/>
      <point x="272" y="250" type="curve" smooth="yes"/>
      <point x="264" y="250"/>
      <point x="252" y="249"/>
      <point x="252" y="241" type="curve" smooth="yes"/>
      <point x="252" y="231"/>
      <point x="264" y="227"/>
      <point x="275" y="223" type="curve" smooth="yes"/>
      <point x="304" y="213"/>
      <point x="321" y="208"/>
      <point x="321" y="189" type="curve" smooth="yes"/>
      <point x="321" y="178"/>
      <point x="316" y="165"/>
      <point x="304" y="147" type="curve" smooth="yes"/>
      <point x="249" y="67" type="line" smooth="yes"/>
      <point x="246" y="63"/>
      <point x="246" y="63"/>
      <point x="244" y="63" type="curve" smooth="yes"/>
      <point x="242" y="63"/>
      <point x="240" y="65"/>
      <point x="239" y="67" type="curve" smooth="yes"/>
      <point x="172" y="167" type="line" smooth="yes"/>
      <point x="166" y="176"/>
      <point x="162" y="188"/>
      <point x="162" y="197" type="curve" smooth="yes"/>
      <point x="162" y="209"/>
      <point x="166" y="220"/>
      <point x="178" y="223" type="curve"/>
      <point x="189" y="227"/>
      <point x="201" y="231"/>
      <point x="201" y="241" type="curve" smooth="yes"/>
      <point x="201" y="249"/>
      <point x="186" y="250"/>
      <point x="181" y="250" type="curve" smooth="yes"/>
      <point x="153" y="250"/>
      <point x="126" y="245"/>
      <point x="98" y="245" type="curve" smooth="yes"/>
      <point x="72" y="245"/>
      <point x="50" y="250"/>
      <point x="25" y="250" type="curve" smooth="yes"/>
      <point x="18" y="250"/>
      <point x="5" y="249"/>
      <point x="5" y="241" type="curve" smooth="yes"/>
      <point x="5" y="231"/>
      <point x="17" y="227"/>
      <point x="28" y="223" type="curve"/>
      <point x="48" y="217"/>
      <point x="66" y="197"/>
      <point x="82" y="174" type="curve" smooth="yes"/>
      <point x="219" y="-16" type="line"/>
      <point x="220" y="-20"/>
      <point x="223" y="-23"/>
    </contour>
  </outline>
</glyph>
<glyph name="braceleft" format="1">
  <advance width="376"/>
  <unicode hex="007B"/>
  <outline>
    <contour>
      <point x="344" y="-153"/>
      <point x="353" y="-146"/>
      <point x="353" y="-137" type="curve" smooth="yes"/>
      <point x="353" y="-126"/>
      <point x="323" y="-124"/>
      <point x="312" y="-123" type="curve" smooth="yes"/>
      <point x="248" y="-116"/>
      <point x="228" y="-108"/>
      <point x="228" y="-58" type="curve" smooth="yes"/>
      <point x="228" y="-11"/>
      <point x="241" y="13"/>
      <point x="241" y="53" type="curve" smooth="yes"/>
      <point x="241" y="98"/>
      <point x="158" y="137"/>
      <point x="125" y="144" type="curve"/>
      <point x="122" y="144"/>
      <point x="119" y="145"/>
      <point x="123" y="146" type="curve"/>
      <point x="165" y="158"/>
      <point x="241" y="191"/>
      <point x="241" y="236" type="curve" smooth="yes"/>
      <point x="241" y="276"/>
      <point x="228" y="300"/>
      <point x="228" y="347" type="curve" smooth="yes"/>
      <point x="228" y="384"/>
      <point x="261" y="407"/>
      <point x="330" y="414" type="curve" smooth="yes"/>
      <point x="341" y="415"/>
      <point x="356" y="417"/>
      <point x="356" y="429" type="curve" smooth="yes"/>
      <point x="356" y="439"/>
      <point x="347" y="443"/>
      <point x="338" y="443" type="curve" smooth="yes"/>
      <point x="244" y="440"/>
      <point x="143" y="416"/>
      <point x="143" y="352" type="curve" smooth="yes"/>
      <point x="143" y="304"/>
      <point x="156" y="272"/>
      <point x="156" y="229" type="curve" smooth="yes"/>
      <point x="156" y="193"/>
      <point x="125" y="172"/>
      <point x="72" y="164" type="curve" smooth="yes"/>
      <point x="57" y="162"/>
      <point x="50" y="155"/>
      <point x="50" y="146" type="curve" smooth="yes"/>
      <point x="50" y="133"/>
      <point x="60" y="129"/>
      <point x="69" y="127" type="curve" smooth="yes"/>
      <point x="118" y="116"/>
      <point x="156" y="84"/>
      <point x="156" y="45" type="curve" smooth="yes"/>
      <point x="156" y="17"/>
      <point x="143" y="-14"/>
      <point x="143" y="-62" type="curve" smooth="yes"/>
      <point x="143" y="-127"/>
      <point x="241" y="-148"/>
      <point x="335" y="-152" type="curve" smooth="yes"/>
    </contour>
  </outline>
</glyph>
<glyph name="bar" format="1">
  <advance width="260"/>
  <unicode hex="007C"/>
  <outline>
    <contour>
      <point x="121" y="-179"/>
      <point x="160" y="-176"/>
      <point x="160" y="-155" type="curve" smooth="yes"/>
      <point x="160" y="430" type="line" smooth="yes"/>
      <point x="160" y="437"/>
      <point x="153" y="443"/>
      <point x="146" y="443" type="curve" smooth="yes"/>
      <point x="140" y="443"/>
      <point x="100" y="434"/>
      <point x="100" y="412" type="curve" smooth="yes"/>
      <point x="100" y="-165" type="line" smooth="yes"/>
      <point x="100" y="-172"/>
      <point x="106" y="-179"/>
      <point x="112" y="-179" type="curve" smooth="yes"/>
    </contour>
  </outline>
</glyph>
